<?xml version="1.0" encoding="UTF-8"?>
<svg id="Layer_1" data-name="Layer 1" xmlns="http://www.w3.org/2000/svg" viewBox="0 0 424.7 448.79">
  <defs>
    <style>
      .cls-1 {
        stroke-width: 0px;
      }
    </style>
  </defs>
  <path class="cls-1" d="M210.62,448.79c-6.33-.83-12.68-1.5-18.98-2.51-69.72-11.27-123.16-47.13-159.93-107.25C8.07,300.35-2.87,257.74.64,212.67,7.89,119.79,54.97,54.13,140.32,16.69,177.57.34,217.05-2.24,257.14,1.51c2.18.2,4.37.3,6.55.52,2.12.22,4.22.54,7.11.92-48.22,28.23-78.72,68.82-90.52,122.77-9.06,41.45-2.52,81.02,17.31,118.27,39.11,73.45,133.53,116.75,227.12,79.63-5.46,9.34-10.44,19-16.45,27.96-25.98,38.75-60.96,66.38-104.5,83.08-18.89,7.25-38.5,11.58-58.68,13.26-1.56.13-3.1.57-4.65.87h-29.8Z"/>
</svg>