<?xml version="1.0" encoding="UTF-8"?>
<svg id="Layer_1" data-name="Layer 1" xmlns="http://www.w3.org/2000/svg" viewBox="0 0 501.5 480.57">
  <defs>
    <style>
      .cls-1 {
        stroke-width: 0px;
      }
    </style>
  </defs>
  <path class="cls-1" d="M501.5,194.87c-2.61,8.59-8.46,14.64-15.08,20.39-33.25,28.91-66.29,58.07-99.52,87-2.95,2.57-3.78,4.8-2.89,8.68,10.37,44.94,20.51,89.93,30.78,134.89,2.68,11.75.18,21.91-9.64,29.22-9.97,7.43-20.6,7.06-31.14.75-39.46-23.61-78.96-47.14-118.3-70.94-3.88-2.35-6.42-1.98-10.01.19-39.25,23.63-78.59,47.12-117.94,70.59-13.31,7.94-27.82,5.74-36.42-5.42-5.44-7.06-6.74-15.03-4.79-23.61,10.23-44.97,20.42-89.95,30.81-134.88,1-4.32.27-6.95-3.16-9.94-34.73-30.19-69.28-60.59-103.89-90.92-8.94-7.84-12.54-17.56-8.92-28.99,3.54-11.15,11.65-17.47,23.39-18.58,27.61-2.61,55.23-5.09,82.85-7.6,19.17-1.74,38.34-3.5,57.52-5.13,3-.26,4.44-1.55,5.61-4.32,18.09-42.59,36.37-85.1,54.45-127.7C229.75,7.85,237.15,1.11,248.9.11c12.13-1.04,21.97,5.65,27.3,18.11,16.66,38.95,33.81,77.71,49.6,117.01,4.55,11.31,10.09,15.84,22.44,16.68,41.17,2.79,82.21,7.32,123.35,10.61,15.24,1.22,25.57,7.58,29.91,22.56v9.79Z"/>
</svg>